<?xml version="1.0" encoding="UTF-8" standalone="no"?>
<svg
   xmlns:dc="http://purl.org/dc/elements/1.1/"
   xmlns:cc="http://creativecommons.org/ns#"
   xmlns:rdf="http://www.w3.org/1999/02/22-rdf-syntax-ns#"
   xmlns:svg="http://www.w3.org/2000/svg"
   xmlns="http://www.w3.org/2000/svg"
   width="512"
   height="512"
   viewBox="0 0 135.46666 135.46667"
   version="1.1"
   id="svg8">
  <defs
     id="defs2" />
  <metadata
     id="metadata5">
    <rdf:RDF>
      <cc:Work
         rdf:about="">
        <dc:format>image/svg+xml</dc:format>
        <dc:type
           rdf:resource="http://purl.org/dc/dcmitype/StillImage" />
        <dc:title></dc:title>
      </cc:Work>
    </rdf:RDF>
  </metadata>
  <path
     id="path4597"
     d="M 21.166666,84.666666 25.4,80.433332 21.166666,76.199999 25.4,71.966666 21.166666,67.733332 25.4,63.499999 21.166666,59.266666 25.4,55.033333 21.166666,50.799999 h 29.633333 v 33.866667 z"
     style="fill:#be1e2d;stroke:#000000;stroke-width:2.01083331;stroke-linecap:round;stroke-linejoin:round;stroke-opacity:1;stroke-miterlimit:4;stroke-dasharray:none;paint-order:stroke markers fill;fill-opacity:1" />
  <path
     id="path4614"
     d="m 50.799999,21.166666 4.233334,4.233333 4.233333,-4.233333 4.233333,4.233333 4.233333,-4.233333 4.233334,4.233333 4.233333,-4.233333 4.233333,4.233333 4.233334,-4.233333 V 50.799999 H 50.799999 Z"
     style="fill:#be1e2d;stroke:#000000;stroke-width:2.01083331;stroke-linecap:round;stroke-linejoin:round;stroke-opacity:1;stroke-miterlimit:4;stroke-dasharray:none;paint-order:stroke markers fill;fill-opacity:1" />
  <path
     id="path4616"
     d="M 84.666666,50.799999 H 114.3 l -4.23333,4.233334 4.23333,4.233333 -4.23333,4.233333 4.23333,4.233333 -4.23333,4.233334 4.23333,4.233333 -4.23333,4.233333 4.23333,4.233334 H 84.666666 Z"
     style="fill:#be1e2d;stroke:#000000;stroke-width:2.01083331;stroke-linecap:round;stroke-linejoin:round;stroke-opacity:1;stroke-miterlimit:4;stroke-dasharray:none;paint-order:stroke markers fill;fill-opacity:1" />
  <path
     id="path4618"
     d="M 50.799999,84.666666 V 114.3 l 4.233334,-4.23333 4.233333,4.23333 4.233333,-4.23333 4.233333,4.23333 4.233334,-4.23333 4.233333,4.23333 4.233333,-4.23333 4.233334,4.23333 V 84.666666 Z"
     style="fill:#be1e2d;stroke:#000000;stroke-width:2.01083331;stroke-linecap:round;stroke-linejoin:round;stroke-opacity:1;stroke-miterlimit:4;stroke-dasharray:none;paint-order:stroke markers fill;fill-opacity:1" />
  <path
     id="path4542"
     d="M 46.566666,88.899999 H 88.899999 V 46.566666 H 46.566666 Z"
     style="fill:#ceb074;fill-opacity:1;stroke:#000000;stroke-width:2.5135417;stroke-linecap:butt;stroke-linejoin:miter;stroke-miterlimit:4;stroke-dasharray:none;stroke-opacity:1" />
  <path
     id="path4544"
     d="M 50.799999,50.799999 H 16.933333 V 16.933333 h 33.866666 z"
     style="fill:#ceb074;stroke:#000000;stroke-width:2.01083331;stroke-linecap:butt;stroke-linejoin:miter;stroke-opacity:1;stroke-miterlimit:4;stroke-dasharray:none;fill-opacity:1" />
  <path
     id="path4546"
     d="M 84.666666,50.799999 H 118.53333 V 16.933333 H 84.666666 Z"
     style="fill:#ceb074;stroke:#000000;stroke-width:2.01083331;stroke-linecap:butt;stroke-linejoin:miter;stroke-opacity:1;stroke-miterlimit:4;stroke-dasharray:none;fill-opacity:1" />
  <path
     id="path4538"
     d="M 16.933333,118.53333 H 50.799999 V 84.666666 H 16.933333 Z"
     style="fill:#ceb074;stroke:#000000;stroke-width:2.01083331;stroke-linecap:butt;stroke-linejoin:miter;stroke-opacity:1;stroke-miterlimit:4;stroke-dasharray:none;fill-opacity:1" />
  <path
     id="path4540"
     d="M 84.666666,118.53333 H 118.53333 V 84.666666 H 84.666666 Z"
     style="fill:#ceb074;stroke:#000000;stroke-width:2.01083331;stroke-linecap:butt;stroke-linejoin:miter;stroke-opacity:1;stroke-miterlimit:4;stroke-dasharray:none;fill-opacity:1" />
  <circle
     r="12.7"
     cy="67.73333"
     cx="67.73333"
     id="path4620"
     style="fill:#ffcf48;fill-opacity:1;stroke:#000000;stroke-width:2.01083326;stroke-linecap:round;stroke-linejoin:round;stroke-miterlimit:4;stroke-dasharray:none;stroke-opacity:1;paint-order:stroke markers fill" />
</svg>
