<?xml version="1.0" encoding="UTF-8" standalone="no"?>
<svg
   xmlns:dc="http://purl.org/dc/elements/1.1/"
   xmlns:cc="http://creativecommons.org/ns#"
   xmlns:rdf="http://www.w3.org/1999/02/22-rdf-syntax-ns#"
   xmlns:svg="http://www.w3.org/2000/svg"
   xmlns="http://www.w3.org/2000/svg"
   id="svg8"
   version="1.1"
   viewBox="0 0 135.46666 135.46667"
   height="512"
   width="512">
  <defs
     id="defs2" />
  <metadata
     id="metadata5">
    <rdf:RDF>
      <cc:Work
         rdf:about="">
        <dc:format>image/svg+xml</dc:format>
        <dc:type
           rdf:resource="http://purl.org/dc/dcmitype/StillImage" />
        <dc:title></dc:title>
      </cc:Work>
    </rdf:RDF>
  </metadata>
  <g
     transform="translate(0,-161.53332)"
     id="layer1">
    <g
       transform="translate(-1.0834634,-14.606126)"
       id="g4604">
      <path
         style="fill:#ceb074;fill-opacity:1;stroke:#000000;stroke-width:1.9759376;stroke-linecap:round;stroke-linejoin:round;stroke-miterlimit:4;stroke-dasharray:none;stroke-opacity:1"
         d="M 131.23333,292.76665 14.477065,239.3541 86.621045,203.54209 Z"
         id="path828" />
      <path
         style="fill:#ceb074;fill-opacity:1;stroke:#000000;stroke-width:1.9759376;stroke-linecap:butt;stroke-linejoin:miter;stroke-miterlimit:4;stroke-dasharray:none;stroke-opacity:1"
         d="m 14.477065,239.3541 c -5.7975155,-0.66293 -12.5756438,-14.84946 -4.029664,-17.61352 6.024661,-1.9486 13.334427,-0.93929 18.252008,-8.46639 4.217708,-6.45583 22.155683,-10.84425 26.422458,-10.11977 4.689534,0.79625 15.328527,-19.0587 31.499178,0.38767 z"
         id="path830" />
      <path
         style="fill:#ffcf48;fill-opacity:1;stroke:#000000;stroke-width:1.9759376;stroke-linecap:butt;stroke-linejoin:miter;stroke-miterlimit:4;stroke-dasharray:none;stroke-opacity:1"
         d="m 14.726044,237.73332 c -0.05906,-5.31578 29.114304,-14.79743 37.040015,-20.33777 6.962047,-4.86669 30.60341,-16.79894 34.941862,-13.64225 4.338446,3.1567 10.051198,20.80736 12.437318,23.32595 9.289401,9.80512 17.427641,26.97358 18.951001,28.60327 1.52339,1.6297 3.60255,12.17728 4.86574,13.66728 6.21063,7.32574 9.10643,21.05703 7.07502,20.78133 -8.20708,-1.11383 -13.08046,-12.2741 -18.80907,-10.67072 -6.58124,1.84202 -8.92174,-4.29855 -11.348543,-4.51946 -2.426819,-0.22091 -13.924694,-1.28477 -17.793916,-7.75331 -1.772417,-2.96312 -13.322735,-1.03766 -15.487094,-3.39496 -6.179133,-6.72995 -8.284192,-8.09656 -13.12421,-8.96921 -4.840019,-0.87264 -9.552232,-0.30262 -12.778244,-2.4177 -3.226008,-2.11507 -5.767291,-6.12382 -7.617486,-6.47014 -1.850195,-0.34633 -11.857054,-0.80826 -13.670996,-2.30344 -1.81394,-1.49517 -4.628511,-1.13829 -4.681397,-5.89887 z"
         id="path832" />
      <ellipse
         style="fill:#be1e2d;fill-opacity:1;stroke:#000000;stroke-width:1.57739401;stroke-linecap:round;stroke-linejoin:round;stroke-miterlimit:4;stroke-dasharray:none;stroke-opacity:1"
         id="path834"
         cx="57.667873"
         cy="246.87198"
         rx="7.4790359"
         ry="4.9667387" />
      <ellipse
         style="fill:#be1e2d;fill-opacity:1;stroke:#000000;stroke-width:1.57739401;stroke-linecap:round;stroke-linejoin:round;stroke-miterlimit:4;stroke-dasharray:none;stroke-opacity:1"
         id="path834-1"
         cx="59.06501"
         cy="225.3147"
         rx="7.4790359"
         ry="4.9667387" />
      <ellipse
         style="fill:#be1e2d;fill-opacity:1;stroke:#000000;stroke-width:1.57739401;stroke-linecap:round;stroke-linejoin:round;stroke-miterlimit:4;stroke-dasharray:none;stroke-opacity:1"
         id="path834-4"
         cx="83.772072"
         cy="221.93217"
         rx="7.4790359"
         ry="4.9667387" />
      <ellipse
         style="fill:#be1e2d;fill-opacity:1;stroke:#000000;stroke-width:1.57739401;stroke-linecap:round;stroke-linejoin:round;stroke-miterlimit:4;stroke-dasharray:none;stroke-opacity:1"
         id="path834-13"
         cx="81.271965"
         cy="241.4919"
         rx="7.4790359"
         ry="4.9667387" />
      <ellipse
         style="fill:#be1e2d;fill-opacity:1;stroke:#000000;stroke-width:1.57739401;stroke-linecap:round;stroke-linejoin:round;stroke-miterlimit:4;stroke-dasharray:none;stroke-opacity:1"
         id="path834-14"
         cx="101.12586"
         cy="252.66895"
         rx="7.4790359"
         ry="4.9667387" />
      <ellipse
         style="fill:#be1e2d;fill-opacity:1;stroke:#000000;stroke-width:1.57739401;stroke-linecap:round;stroke-linejoin:round;stroke-miterlimit:4;stroke-dasharray:none;stroke-opacity:1"
         id="path834-46"
         cx="108.92036"
         cy="267.81674"
         rx="7.4790359"
         ry="4.9667387" />
      <ellipse
         style="fill:#be1e2d;fill-opacity:1;stroke:#000000;stroke-width:1.57739401;stroke-linecap:round;stroke-linejoin:round;stroke-miterlimit:4;stroke-dasharray:none;stroke-opacity:1"
         id="path834-0"
         cx="80.536629"
         cy="257.22794"
         rx="7.4790359"
         ry="4.9667387" />
      <ellipse
         style="fill:#be1e2d;fill-opacity:1;stroke:#000000;stroke-width:1.57739401;stroke-linecap:round;stroke-linejoin:round;stroke-miterlimit:4;stroke-dasharray:none;stroke-opacity:1"
         id="path834-18"
         cx="37.299248"
         cy="237.66823"
         rx="7.4790359"
         ry="4.9667387" />
    </g>
  </g>
</svg>
